<svg xmlns="http://www.w3.org/2000/svg" viewBox="0 0 1024 1024">
<path d="M 278,617 L 277,618 L 276,618 L 275,619 L 273,619 L 271,621 L 270,621 L 265,626 L 265,627 L 263,629 L 263,630 L 262,631 L 262,633 L 261,634 L 261,637 L 260,638 L 260,679 L 261,680 L 261,683 L 262,684 L 262,685 L 263,686 L 263,687 L 264,688 L 264,689 L 271,696 L 272,696 L 273,697 L 274,697 L 275,698 L 276,698 L 277,699 L 280,699 L 281,700 L 742,700 L 743,699 L 746,699 L 747,698 L 748,698 L 749,697 L 750,697 L 751,696 L 752,696 L 758,690 L 758,689 L 760,687 L 760,685 L 761,684 L 761,682 L 762,681 L 762,676 L 763,675 L 763,640 L 762,639 L 762,635 L 761,634 L 761,632 L 760,631 L 760,630 L 759,629 L 759,628 L 757,626 L 757,625 L 754,622 L 753,622 L 751,620 L 750,620 L 749,619 L 748,619 L 747,618 L 745,618 L 744,617 Z" fill="currentColor"/>
<path d="M 281,479 L 280,480 L 277,480 L 276,481 L 275,481 L 274,482 L 273,482 L 272,483 L 271,483 L 269,485 L 268,485 L 266,487 L 266,488 L 264,490 L 264,491 L 263,492 L 263,493 L 262,494 L 262,496 L 261,497 L 261,500 L 260,501 L 260,540 L 261,541 L 261,544 L 262,545 L 262,546 L 263,547 L 263,548 L 264,549 L 264,550 L 266,552 L 266,553 L 268,555 L 269,555 L 272,558 L 273,558 L 274,559 L 276,559 L 277,560 L 279,560 L 280,561 L 743,561 L 744,560 L 746,560 L 747,559 L 748,559 L 749,558 L 750,558 L 752,556 L 753,556 L 758,551 L 758,550 L 760,548 L 760,546 L 761,545 L 761,544 L 762,543 L 762,539 L 763,538 L 763,502 L 762,501 L 762,497 L 761,496 L 761,494 L 760,493 L 760,492 L 758,490 L 758,489 L 752,483 L 751,483 L 750,482 L 749,482 L 748,481 L 747,481 L 746,480 L 743,480 L 742,479 Z" fill="currentColor"/>
<path d="M 281,341 L 280,342 L 277,342 L 276,343 L 274,343 L 272,345 L 271,345 L 264,352 L 264,353 L 263,354 L 263,355 L 262,356 L 262,358 L 261,359 L 261,362 L 260,363 L 260,401 L 261,402 L 261,405 L 262,406 L 262,408 L 263,409 L 263,410 L 265,412 L 265,413 L 271,419 L 272,419 L 273,420 L 274,420 L 275,421 L 276,421 L 277,422 L 281,422 L 282,423 L 740,423 L 741,422 L 745,422 L 746,421 L 748,421 L 749,420 L 750,420 L 752,418 L 753,418 L 757,414 L 757,413 L 759,411 L 759,410 L 760,409 L 760,408 L 761,407 L 761,405 L 762,404 L 762,401 L 763,400 L 763,364 L 762,363 L 762,359 L 761,358 L 761,357 L 760,356 L 760,354 L 758,352 L 758,351 L 752,345 L 751,345 L 750,344 L 749,344 L 748,343 L 746,343 L 745,342 L 743,342 L 742,341 Z" fill="currentColor"/>
</svg>