<svg xmlns="http://www.w3.org/2000/svg" viewBox="0 0 410 410" width="406" height="406">

  <defs>
    <linearGradient id="grad1" x1="0%" y1="0%" x2="100%" y2="0%">
      <stop offset="0%" stop-color="#5bb887"/>
<stop offset="65%" stop-color="#00a250"/>
<stop offset="100%" stop-color="#00a250"/>
    </linearGradient>
  </defs>

<path d="M 196 400 Z" fill="url(#grad1)" fill-rule="evenodd"/>

<path d="M 187 399 L 188 399 Z" fill="url(#grad1)" fill-rule="evenodd"/>

<path d="M 268 392 Z" fill="url(#grad1)" fill-rule="evenodd"/>

<path d="M 146 390 Z" fill="url(#grad1)" fill-rule="evenodd"/>

<path d="M 105 372 Z" fill="url(#grad1)" fill-rule="evenodd"/>

<path d="M 95 366 Z" fill="url(#grad1)" fill-rule="evenodd"/>

<path d="M 81 356 Z" fill="url(#grad1)" fill-rule="evenodd"/>

<path d="M 355 287 Z" fill="url(#grad1)" fill-rule="evenodd"/>

<path d="M 307 287 L 308 287 Z" fill="url(#grad1)" fill-rule="evenodd"/>

<path d="M 304 287 L 305 287 Z" fill="url(#grad1)" fill-rule="evenodd"/>

<path d="M 296 287 L 300 287 Z" fill="url(#grad1)" fill-rule="evenodd"/>

<path d="M 288 287 L 291 287 Z" fill="url(#grad1)" fill-rule="evenodd"/>

<path d="M 227 222 L 226 223 L 225 223 L 224 224 L 224 227 L 223 228 L 223 248 L 224 249 L 223 250 L 223 254 L 224 255 L 224 261 L 223 262 L 224 263 L 224 264 L 223 265 L 223 266 L 224 267 L 224 272 L 223 273 L 223 278 L 224 279 L 223 280 L 223 281 L 224 282 L 224 283 L 226 285 L 228 285 L 229 286 L 230 286 L 231 285 L 261 285 L 263 283 L 263 245 L 264 244 L 263 243 L 263 224 L 262 223 L 261 223 L 260 222 Z" fill="url(#grad1)" fill-rule="evenodd"/>

<path d="M 286 164 L 285 165 L 283 165 L 281 167 L 281 283 L 283 285 L 319 285 L 321 283 L 321 168 L 320 167 L 320 166 L 319 165 L 316 165 L 315 164 L 303 164 L 302 165 L 301 164 L 297 164 L 296 165 L 294 165 L 293 164 Z" fill="url(#grad1)" fill-rule="evenodd"/>

<path d="M 15 154 Z" fill="url(#grad1)" fill-rule="evenodd"/>

<path d="M 343 111 L 342 112 L 340 112 L 339 113 L 339 114 L 338 115 L 338 281 L 339 282 L 339 283 L 338 284 L 341 284 L 342 285 L 377 285 L 379 283 L 379 113 L 377 111 Z" fill="url(#grad1)" fill-rule="evenodd"/>

<path d="M 203 9 L 202 10 L 190 10 L 189 11 L 181 11 L 180 12 L 175 12 L 174 13 L 170 13 L 169 14 L 165 14 L 164 15 L 161 15 L 160 16 L 157 16 L 156 17 L 153 17 L 152 18 L 150 18 L 149 19 L 147 19 L 146 20 L 144 20 L 143 21 L 141 21 L 140 22 L 138 22 L 137 23 L 135 23 L 134 24 L 133 24 L 132 25 L 131 25 L 130 26 L 128 26 L 127 27 L 126 27 L 125 28 L 124 28 L 123 29 L 122 29 L 121 30 L 120 30 L 119 31 L 117 31 L 115 33 L 114 33 L 113 34 L 112 34 L 111 35 L 110 35 L 109 36 L 108 36 L 107 37 L 106 37 L 104 39 L 103 39 L 101 41 L 100 41 L 98 43 L 97 43 L 95 45 L 94 45 L 93 46 L 92 46 L 89 49 L 88 49 L 85 52 L 84 52 L 80 56 L 79 56 L 56 79 L 56 80 L 51 85 L 51 86 L 49 88 L 49 89 L 46 92 L 46 93 L 44 95 L 44 96 L 42 98 L 42 99 L 40 101 L 40 102 L 39 103 L 39 104 L 37 106 L 37 107 L 36 108 L 36 109 L 35 110 L 35 111 L 33 113 L 33 114 L 32 115 L 32 116 L 31 117 L 31 118 L 30 119 L 30 121 L 28 123 L 28 124 L 27 125 L 27 127 L 26 128 L 26 129 L 25 130 L 25 131 L 24 132 L 24 134 L 23 135 L 23 137 L 22 138 L 22 139 L 21 140 L 21 142 L 20 143 L 20 145 L 19 146 L 19 149 L 18 150 L 18 152 L 17 153 L 17 155 L 16 156 L 16 159 L 15 160 L 15 164 L 14 165 L 14 169 L 13 170 L 13 174 L 12 175 L 12 183 L 11 184 L 11 197 L 10 198 L 10 210 L 11 211 L 11 228 L 12 229 L 12 235 L 13 236 L 13 241 L 14 242 L 14 246 L 15 247 L 15 250 L 16 251 L 16 254 L 17 255 L 17 258 L 18 259 L 18 261 L 19 262 L 19 265 L 20 266 L 20 267 L 21 268 L 21 271 L 22 272 L 22 273 L 23 274 L 23 276 L 24 277 L 24 278 L 25 279 L 25 280 L 26 281 L 26 283 L 25 284 L 26 283 L 27 284 L 27 285 L 28 286 L 28 287 L 29 288 L 29 289 L 30 290 L 30 291 L 31 292 L 31 293 L 32 294 L 32 295 L 33 296 L 33 297 L 34 298 L 34 299 L 36 301 L 36 302 L 37 303 L 37 304 L 39 306 L 39 307 L 41 309 L 41 310 L 43 312 L 43 313 L 46 316 L 46 317 L 48 319 L 48 320 L 52 324 L 52 325 L 56 329 L 56 330 L 73 347 L 74 347 L 80 353 L 81 353 L 84 356 L 85 356 L 88 359 L 89 359 L 91 361 L 92 361 L 94 363 L 95 363 L 97 365 L 98 365 L 100 367 L 101 367 L 103 369 L 104 369 L 105 370 L 106 370 L 108 372 L 107 373 L 108 372 L 109 372 L 110 373 L 111 373 L 112 374 L 113 374 L 114 375 L 115 375 L 116 376 L 117 376 L 118 377 L 119 377 L 120 378 L 121 378 L 122 379 L 121 380 L 122 379 L 123 379 L 124 380 L 126 380 L 127 381 L 128 381 L 129 382 L 130 382 L 131 383 L 133 383 L 134 384 L 136 384 L 137 385 L 138 385 L 139 386 L 141 386 L 142 387 L 144 387 L 145 388 L 147 388 L 148 389 L 151 389 L 152 390 L 154 390 L 155 391 L 158 391 L 159 392 L 162 392 L 163 393 L 166 393 L 167 394 L 171 394 L 172 395 L 176 395 L 177 396 L 182 396 L 183 397 L 191 397 L 192 398 L 204 398 L 205 399 L 216 399 L 217 398 L 218 399 L 219 398 L 230 398 L 231 397 L 239 397 L 240 396 L 245 396 L 246 395 L 249 395 L 250 394 L 254 394 L 255 393 L 258 393 L 259 392 L 262 392 L 263 391 L 265 391 L 266 390 L 269 390 L 270 389 L 272 389 L 273 388 L 275 388 L 276 387 L 278 387 L 279 386 L 280 386 L 281 385 L 283 385 L 284 384 L 285 384 L 286 383 L 288 383 L 289 382 L 290 382 L 291 381 L 292 381 L 293 380 L 294 380 L 295 379 L 296 379 L 297 378 L 298 378 L 299 377 L 300 377 L 301 376 L 302 376 L 303 375 L 304 375 L 305 374 L 306 374 L 307 373 L 308 373 L 310 371 L 311 371 L 313 369 L 314 369 L 315 368 L 316 368 L 318 366 L 319 366 L 321 364 L 322 364 L 324 362 L 325 362 L 328 359 L 329 359 L 333 355 L 334 355 L 339 350 L 340 350 L 354 336 L 354 335 L 358 331 L 358 329 L 354 325 L 353 325 L 348 320 L 347 320 L 343 316 L 342 316 L 336 310 L 332 310 L 316 326 L 315 326 L 310 331 L 309 331 L 305 335 L 304 335 L 301 338 L 300 338 L 298 340 L 297 340 L 295 342 L 294 342 L 292 344 L 291 344 L 290 345 L 289 345 L 287 347 L 286 347 L 285 348 L 284 348 L 283 349 L 282 349 L 281 350 L 280 350 L 279 351 L 278 351 L 277 352 L 276 352 L 275 353 L 273 353 L 272 354 L 271 354 L 270 355 L 269 355 L 268 356 L 266 356 L 265 357 L 263 357 L 262 358 L 259 358 L 258 359 L 255 359 L 254 360 L 251 360 L 250 361 L 246 361 L 245 362 L 238 362 L 237 363 L 222 363 L 221 362 L 214 362 L 213 361 L 209 361 L 208 360 L 206 360 L 205 359 L 202 359 L 201 358 L 199 358 L 198 357 L 196 357 L 195 356 L 194 356 L 193 355 L 192 355 L 191 354 L 190 354 L 189 353 L 188 353 L 187 352 L 186 352 L 185 351 L 184 351 L 182 349 L 181 349 L 180 348 L 179 348 L 175 344 L 174 344 L 162 332 L 162 331 L 160 329 L 160 328 L 158 326 L 158 325 L 157 324 L 157 323 L 156 322 L 156 321 L 155 320 L 155 319 L 154 318 L 154 317 L 153 316 L 153 315 L 152 314 L 152 312 L 151 311 L 151 307 L 150 306 L 150 299 L 149 298 L 149 288 L 150 287 L 150 279 L 151 278 L 151 274 L 155 270 L 156 270 L 157 269 L 158 269 L 159 268 L 160 268 L 162 266 L 163 266 L 164 265 L 165 265 L 166 264 L 167 264 L 168 263 L 169 263 L 171 261 L 172 261 L 173 260 L 174 260 L 176 258 L 177 258 L 179 256 L 180 256 L 182 254 L 183 254 L 185 252 L 186 252 L 189 249 L 190 249 L 194 245 L 195 245 L 200 240 L 201 240 L 215 226 L 215 225 L 219 221 L 219 220 L 223 216 L 223 215 L 224 214 L 224 213 L 226 211 L 226 210 L 228 208 L 228 207 L 229 206 L 229 205 L 230 204 L 230 203 L 231 202 L 231 201 L 232 200 L 232 199 L 233 198 L 233 197 L 234 196 L 234 195 L 235 194 L 235 192 L 236 191 L 236 189 L 237 188 L 237 186 L 238 185 L 238 182 L 239 181 L 239 177 L 240 176 L 240 173 L 241 172 L 241 167 L 242 166 L 242 155 L 243 154 L 243 137 L 242 136 L 242 127 L 241 126 L 241 120 L 240 119 L 240 115 L 239 114 L 239 109 L 238 108 L 238 104 L 237 103 L 237 101 L 236 100 L 236 97 L 235 96 L 235 93 L 234 92 L 234 91 L 230 91 L 229 92 L 227 92 L 226 93 L 224 93 L 223 94 L 220 94 L 219 95 L 217 95 L 216 96 L 214 96 L 213 97 L 211 97 L 210 98 L 208 98 L 207 99 L 205 99 L 204 100 L 202 100 L 201 101 L 200 101 L 199 102 L 198 102 L 197 103 L 195 103 L 194 104 L 193 104 L 192 105 L 191 105 L 190 106 L 188 106 L 187 107 L 186 107 L 185 108 L 184 108 L 183 109 L 182 109 L 181 110 L 180 110 L 179 111 L 178 111 L 177 112 L 176 112 L 174 114 L 173 114 L 172 115 L 171 115 L 170 116 L 169 116 L 168 117 L 167 117 L 165 119 L 164 119 L 163 120 L 162 120 L 160 122 L 159 122 L 157 124 L 156 124 L 154 126 L 153 126 L 150 129 L 149 129 L 146 132 L 145 132 L 141 136 L 140 136 L 136 140 L 135 140 L 124 151 L 124 152 L 118 158 L 118 159 L 116 161 L 116 162 L 114 164 L 114 165 L 111 168 L 111 169 L 110 170 L 110 171 L 108 173 L 108 174 L 107 175 L 107 176 L 106 177 L 106 178 L 105 179 L 105 180 L 104 181 L 104 183 L 103 184 L 103 185 L 102 186 L 102 188 L 101 189 L 101 192 L 100 193 L 100 195 L 99 196 L 99 200 L 98 201 L 98 206 L 97 207 L 97 226 L 98 227 L 98 233 L 99 234 L 99 238 L 100 239 L 100 242 L 101 243 L 101 246 L 102 247 L 102 249 L 103 250 L 103 252 L 104 253 L 104 255 L 105 256 L 105 257 L 106 258 L 106 259 L 107 260 L 107 261 L 108 262 L 108 263 L 109 264 L 109 265 L 110 266 L 110 267 L 111 268 L 111 269 L 112 270 L 112 271 L 113 272 L 115 272 L 115 269 L 116 268 L 116 265 L 117 264 L 117 262 L 118 261 L 118 259 L 119 258 L 119 257 L 120 256 L 120 254 L 121 253 L 121 251 L 122 250 L 122 248 L 123 247 L 123 246 L 124 245 L 124 243 L 125 242 L 125 241 L 126 240 L 126 239 L 127 238 L 127 236 L 128 235 L 128 234 L 129 233 L 129 232 L 130 231 L 130 230 L 131 229 L 131 228 L 132 227 L 132 226 L 133 225 L 133 224 L 134 223 L 134 222 L 135 221 L 135 220 L 136 219 L 136 218 L 137 217 L 137 216 L 139 214 L 139 213 L 140 212 L 140 211 L 141 210 L 141 209 L 143 207 L 143 206 L 144 205 L 144 204 L 146 202 L 146 201 L 148 199 L 148 198 L 149 197 L 149 196 L 151 194 L 151 193 L 153 191 L 153 190 L 154 189 L 155 190 L 154 189 L 156 187 L 156 186 L 158 184 L 158 183 L 161 180 L 161 179 L 165 175 L 165 174 L 170 169 L 170 168 L 171 167 L 172 167 L 172 166 L 174 164 L 175 165 L 175 166 L 174 167 L 174 168 L 173 169 L 173 170 L 171 172 L 171 173 L 170 174 L 170 175 L 169 176 L 169 177 L 168 178 L 168 179 L 167 180 L 167 181 L 166 182 L 166 183 L 165 184 L 165 185 L 164 186 L 164 187 L 163 188 L 163 189 L 162 190 L 162 191 L 161 192 L 161 194 L 160 195 L 160 196 L 159 197 L 159 198 L 158 199 L 158 200 L 157 201 L 157 202 L 156 203 L 156 204 L 155 205 L 155 206 L 154 207 L 154 209 L 153 210 L 153 211 L 152 212 L 152 214 L 151 215 L 151 216 L 150 217 L 150 218 L 149 219 L 149 221 L 148 222 L 148 223 L 147 224 L 147 226 L 146 227 L 146 229 L 145 230 L 145 231 L 144 232 L 144 234 L 143 235 L 143 237 L 142 238 L 142 239 L 141 240 L 141 243 L 140 244 L 140 246 L 139 247 L 139 249 L 138 250 L 138 253 L 137 254 L 137 257 L 136 258 L 136 261 L 135 262 L 135 266 L 134 267 L 134 271 L 133 272 L 133 279 L 132 280 L 132 309 L 133 310 L 133 315 L 134 316 L 134 320 L 135 321 L 135 323 L 136 324 L 136 326 L 137 327 L 137 328 L 138 329 L 138 331 L 139 332 L 139 333 L 140 334 L 140 335 L 141 336 L 141 337 L 143 339 L 143 340 L 144 341 L 144 342 L 147 345 L 147 346 L 150 349 L 150 350 L 152 352 L 152 354 L 154 356 L 155 355 L 158 358 L 157 359 L 156 359 L 155 358 L 153 358 L 152 357 L 150 357 L 149 356 L 148 356 L 147 355 L 145 355 L 144 354 L 142 354 L 141 353 L 140 353 L 139 352 L 138 352 L 137 351 L 136 351 L 135 350 L 134 350 L 133 349 L 132 349 L 131 348 L 130 348 L 128 346 L 127 346 L 126 345 L 125 345 L 123 343 L 122 343 L 121 342 L 120 342 L 117 339 L 116 339 L 113 336 L 112 336 L 108 332 L 107 332 L 99 324 L 98 324 L 95 321 L 95 320 L 84 309 L 84 308 L 80 304 L 80 303 L 77 300 L 77 299 L 74 296 L 74 295 L 72 293 L 72 292 L 71 291 L 71 290 L 69 288 L 69 287 L 68 286 L 68 285 L 66 283 L 66 282 L 65 281 L 65 280 L 64 279 L 64 278 L 63 277 L 63 276 L 62 275 L 62 274 L 61 273 L 61 272 L 60 271 L 60 269 L 59 268 L 59 267 L 58 266 L 58 265 L 57 264 L 57 263 L 56 262 L 56 260 L 55 259 L 55 257 L 54 256 L 54 254 L 53 253 L 53 251 L 52 250 L 52 249 L 53 248 L 52 248 L 51 247 L 51 244 L 50 243 L 50 241 L 49 240 L 49 236 L 48 235 L 48 230 L 47 229 L 47 224 L 46 223 L 46 212 L 45 211 L 45 196 L 46 195 L 46 185 L 47 184 L 47 178 L 48 177 L 48 173 L 49 172 L 49 169 L 50 168 L 50 164 L 51 163 L 51 161 L 52 160 L 52 157 L 53 156 L 53 154 L 54 153 L 54 151 L 55 150 L 55 148 L 56 147 L 56 146 L 57 145 L 57 143 L 58 142 L 59 142 L 58 141 L 59 140 L 59 139 L 60 138 L 60 137 L 61 136 L 61 134 L 62 133 L 62 132 L 63 131 L 63 130 L 65 128 L 65 127 L 66 126 L 66 125 L 67 124 L 67 123 L 68 122 L 68 121 L 70 119 L 70 118 L 72 116 L 72 115 L 73 114 L 73 113 L 76 110 L 76 109 L 78 107 L 78 106 L 82 102 L 82 101 L 90 93 L 90 92 L 95 87 L 96 87 L 105 78 L 106 78 L 110 74 L 111 74 L 113 72 L 114 72 L 117 69 L 118 69 L 119 68 L 120 68 L 122 66 L 123 66 L 125 64 L 126 64 L 128 62 L 129 62 L 130 61 L 131 61 L 132 60 L 133 60 L 134 59 L 135 59 L 136 58 L 137 58 L 138 57 L 139 57 L 140 56 L 141 56 L 142 55 L 143 55 L 144 54 L 145 54 L 146 53 L 148 53 L 149 52 L 150 52 L 151 51 L 152 51 L 153 50 L 156 50 L 157 49 L 158 49 L 159 48 L 161 48 L 162 47 L 165 47 L 166 46 L 168 46 L 169 45 L 172 45 L 173 44 L 177 44 L 178 43 L 182 43 L 183 42 L 189 42 L 190 41 L 199 41 L 200 40 L 218 40 L 219 41 L 230 41 L 231 42 L 237 42 L 238 43 L 242 43 L 243 44 L 247 44 L 248 45 L 251 45 L 252 46 L 255 46 L 256 47 L 259 47 L 260 48 L 262 48 L 263 49 L 265 49 L 266 50 L 268 50 L 269 51 L 271 51 L 272 52 L 273 52 L 274 53 L 276 53 L 277 54 L 278 54 L 279 55 L 280 55 L 281 56 L 282 56 L 283 57 L 284 57 L 285 58 L 286 58 L 287 59 L 288 59 L 289 60 L 290 60 L 291 61 L 292 61 L 293 62 L 294 62 L 295 63 L 296 63 L 298 65 L 299 65 L 300 66 L 301 66 L 303 68 L 304 68 L 305 69 L 306 69 L 308 71 L 309 71 L 312 74 L 313 74 L 316 77 L 317 77 L 323 83 L 324 83 L 331 90 L 335 90 L 336 89 L 337 89 L 340 86 L 341 86 L 343 84 L 344 84 L 348 80 L 349 80 L 352 77 L 353 77 L 356 74 L 357 74 L 357 71 L 356 70 L 356 69 L 354 67 L 353 67 L 351 65 L 351 64 L 350 63 L 349 63 L 342 56 L 341 56 L 337 52 L 336 52 L 333 49 L 332 49 L 329 46 L 328 46 L 326 44 L 325 44 L 323 42 L 322 42 L 320 40 L 319 40 L 318 39 L 317 39 L 315 37 L 314 37 L 313 36 L 312 36 L 311 35 L 310 35 L 308 33 L 306 33 L 305 32 L 304 32 L 302 30 L 301 30 L 300 29 L 298 29 L 297 28 L 296 28 L 295 27 L 294 27 L 293 26 L 292 26 L 291 25 L 289 25 L 288 24 L 287 24 L 286 23 L 284 23 L 283 22 L 281 22 L 280 21 L 279 21 L 278 20 L 275 20 L 274 19 L 272 19 L 271 18 L 269 18 L 268 17 L 265 17 L 264 16 L 261 16 L 260 15 L 257 15 L 256 14 L 253 14 L 252 13 L 247 13 L 246 12 L 240 12 L 239 11 L 231 11 L 230 10 L 220 10 L 219 9 Z M 153 355 L 154 354 L 155 355 L 154 356 Z M 152 354 L 153 353 L 154 354 L 153 355 Z M 174 164 L 175 163 L 176 164 L 175 165 Z" fill="url(#grad1)" fill-rule="evenodd"/>

</svg>